<?xml version="1.0" encoding="UTF-8"?>
<svg width="60px" height="51px" viewBox="0 0 60 51" version="1.1" xmlns="http://www.w3.org/2000/svg" xmlns:xlink="http://www.w3.org/1999/xlink">
    <title>paw</title>
    <g id="Symbols" stroke="none" stroke-width="1" fill="none" fill-rule="evenodd">
        <g id="header" transform="translate(-880.000000, -1.000000)" fill="#EF87A3" fill-rule="nonzero">
            <g id="paw" transform="translate(880.000000, 1.000000)">
                <path d="M23.4699677,41 C24.5292622,41 25.6154563,40.7896726 26.6478511,40.5899061 C29.6341945,40.0118393 30.361086,40.0105053 33.3546347,40.5899061 C36.0006492,41.102051 39.0000822,41.6827858 40.9949807,38.6161414 C43.6979169,34.4606192 40.4590289,30.0465233 37.0661883,30.0465233 C35.8105503,30.0465233 35.2377315,29.5391585 34.4450319,28.8370296 C33.5209563,28.0186204 32.3709955,27 30.0011829,27 C27.6313702,27 26.4814095,28.0186204 25.5573338,28.8370296 C24.7646343,29.5392696 24.1919356,30.0465233 22.9361774,30.0465233 C19.5624308,30.0465233 16.2920797,34.4414985 19.0075051,38.6161414 C20.2239945,40.4862987 21.814077,41 23.4699677,41 Z M22.9361774,31.7141348 C24.9149842,31.7141348 25.9179575,30.8256906 26.8027644,30.0418543 C27.6353331,29.3043744 28.3542988,28.6675004 30.0010628,28.6675004 C31.6478268,28.6675004 32.3669125,29.3043744 33.1993611,30.0418543 C34.0842881,30.8256906 35.0872614,31.7141348 37.0659481,31.7141348 C39.0502789,31.7141348 41.4333012,34.7087433 39.4513722,37.7558224 C38.1759196,39.7165805 36.6099747,39.5162581 33.7231841,38.9574232 C30.4904206,38.331777 29.5246745,38.3292202 26.2789414,38.9574232 C23.3920307,39.5163693 21.8260858,39.7165805 20.5507534,37.7558224 C18.5565754,34.6899561 20.9771852,31.7141348 22.9361774,31.7141348 Z" id="Shape"></path>
                <path d="M29,22.5000584 C29,20.5701721 27.6541834,19 26,19 C24.3458166,19 23,20.5701721 23,22.5000584 C23,24.4299448 24.3458166,26 26,26 C27.6541834,26 29,24.4299448 29,22.5000584 Z M24.7853374,22.5000584 C24.7853374,21.5528147 25.3416115,20.7526578 26,20.7526578 C26.6583885,20.7526578 27.2146626,21.5528147 27.2146626,22.5000584 C27.2146626,23.4471853 26.6583885,24.247459 26,24.247459 C25.3416115,24.247459 24.7853374,23.4473021 24.7853374,22.5000584 Z" id="Shape"></path>
                <path d="M22.8745674,24.7855861 C22.3865151,22.811335 20.6837391,21.6931386 19.1514052,22.0739215 C17.5655878,22.4678999 16.6554266,24.3251592 17.1224382,26.2143467 C17.5303239,27.8636599 18.8548359,29.0001178 20.2398842,29 C22.1064022,28.9994109 23.4228035,27.0028925 22.8745674,24.7855861 L22.8745674,24.7855861 Z M18.8341477,25.789147 C18.4940862,24.4134037 19.3975472,23.2179197 20.437362,24.0270834 C21.5674523,24.9065836 21.4233405,26.961539 20.4214932,27.2103674 C19.7900344,27.3669455 19.063363,26.716245 18.8341477,25.789147 L18.8341477,25.789147 Z" id="Shape"></path>
                <path d="M37,22.5000584 C37,20.5701721 35.6541834,19 34,19 C32.3456976,19 31,20.5701721 31,22.5000584 C31,24.4299448 32.3458166,26 34,26 C35.6541834,26.0001168 37,24.4299448 37,22.5000584 Z M32.7854564,22.5000584 C32.7854564,21.5528147 33.3417305,20.7526578 34.000119,20.7526578 C34.6585076,20.7526578 35.2146626,21.5528147 35.2146626,22.5000584 C35.2146626,23.4471853 34.6585076,24.247459 34.000119,24.247459 C33.3417305,24.247459 32.7854564,23.4473021 32.7854564,22.5000584 Z" id="Shape"></path>
                <path d="M42.6789661,23.6747664 C42.3094041,22.8551462 41.6414673,22.2717397 40.8464275,22.0741685 C39.2617514,21.6799686 37.5924967,22.8966162 37.1256692,24.7856185 C36.5753203,27.0130956 37.9015614,29 39.7585339,29 C42.1091171,29 43.7156426,25.9739912 42.6789661,23.6747664 Z M41.1634801,25.7892615 C40.8236382,27.1644844 39.4682644,27.7991393 38.9263734,26.5969826 C38.3470092,25.3122395 39.3933183,23.5342163 40.4224767,23.7896334 C40.7892194,23.8808201 40.9876269,24.2130508 41.0732629,24.403082 C41.2509956,24.7970463 41.2837699,25.3022254 41.1634801,25.7892615 Z" id="Shape"></path>
                <path d="M17.1300969,0.00530973717 C12.6538878,-0.103783211 8.42166294,1.50501204 5.21084395,4.53402927 C4.85588316,4.8687705 4.83678161,5.43105522 5.16795334,5.78972346 C5.49924227,6.1486286 6.0555311,6.16781758 6.41025752,5.83307636 C11.8427162,0.708195248 21.4791576,-0.393394784 29.385795,7.41699699 C29.7273964,7.75434413 30.2730212,7.75434413 30.6146226,7.41699699 C44.4128591,-6.21298832 64.4543743,6.80437079 56.382737,25.2549378 C54.5462924,29.4528249 51.4248875,33.603095 47.0928189,37.6116982 L47.0928189,32.9853754 C47.0928189,32.4946348 46.6993035,32.0968779 46.2137959,32.0968779 C45.7282882,32.0968779 45.3347728,32.4946348 45.3347728,32.9853754 L45.3347728,39.1739424 C41.2878213,42.6328166 36.3243468,45.9630536 30.5745445,49.0766445 C30.2150134,49.2712588 29.7854042,49.2712588 29.4261074,49.0768814 C23.6759536,45.9630536 18.712479,42.6328166 14.6655276,39.1739424 L14.6655276,15.6617469 C14.6655276,14.804165 14.9955274,13.9988198 15.5957616,13.3930637 C17.5838467,11.3802336 21.014275,12.8172756 21.014275,15.6617469 C21.014275,16.1524875 21.4077904,16.5502444 21.893298,16.5502444 C22.3788056,16.5502444 22.7723211,16.1524875 22.7723211,15.6617469 C22.7723211,14.804165 23.102321,13.9988198 23.7022035,13.3935375 C25.6969683,11.376917 29.1211857,12.823435 29.1211857,15.6617469 C29.1211857,16.1524875 29.5147012,16.5502444 30.0002088,16.5502444 C30.4857164,16.5502444 30.8792318,16.1524875 30.8792318,15.6617469 C30.8792318,14.804165 31.2092317,13.9988198 31.8089971,13.3935375 C33.7901681,11.3910126 37.2279792,12.7939408 37.2279792,15.6617469 C37.2279792,16.1524875 37.6214947,16.5502444 38.1070023,16.5502444 C38.5925099,16.5502444 38.9860254,16.1524875 38.9860254,15.6617469 C38.9860254,14.804165 39.3160253,13.9988198 39.9159078,13.3935375 C41.8943836,11.3933817 45.33489,12.7892028 45.33489,15.6617469 L45.33489,29.4313854 C45.33489,29.922126 45.7284054,30.3198829 46.213913,30.3198829 C46.6994207,30.3198829 47.0929361,29.922126 47.0929361,29.4313854 L47.0929361,15.6617469 C47.0929361,12.9129836 44.8805542,10.6767559 42.1611022,10.6767559 C40.5036029,10.6767559 39.0163769,11.4989211 38.1052445,12.8214214 C36.1491516,9.9800298 31.9790361,9.9474559 29.9983338,12.8215398 C28.0431783,9.9816881 23.873766,9.94544224 21.8915402,12.8215398 C20.1307988,10.2640742 16.5209565,9.94153337 14.3528714,12.1365403 C13.4207625,13.0772745 12.9077158,14.3292968 12.9077158,15.6617469 L12.9077158,37.6102768 C7.35865557,32.4656145 3.72889144,26.9788669 2.36939981,21.6551074 C1.13143157,16.8070452 1.80127504,12.0970963 4.25553184,8.39302945 C4.52564892,7.98532269 4.41771928,7.43346162 4.01436007,7.16043312 C3.61111805,6.88740462 3.06490733,6.99649757 2.79490744,7.40420433 C-1.04930973,13.2059118 -1.41200489,21.7806649 4.78955506,30.9798893 C10.4067012,39.3124111 19.8149786,45.8880744 28.5963031,50.6433898 C29.4755605,51.1189687 30.5250914,51.1188503 31.4045832,50.6431529 C41.6713758,45.0834399 53.2766836,36.748786 57.9905488,25.9735772 C59.8894543,21.6330756 60.4568759,17.2346516 59.6316419,13.2536474 C57.0325414,0.714710027 41.5173915,-5.09351225 30.0002088,5.55886335 C26.1873978,2.0338937 21.7540793,0.1174824 17.1300969,0.00530973717 Z" id="Path"></path>
            </g>
        </g>
    </g>
</svg>